<?xml version="1.0" encoding="iso-8859-1"?>
<!-- Generator: Adobe Illustrator 19.0.0, SVG Export Plug-In . SVG Version: 6.00 Build 0)  -->
<svg version="1.1" id="Capa_1" xmlns="http://www.w3.org/2000/svg" xmlns:xlink="http://www.w3.org/1999/xlink" x="0px" y="0px"
	 viewBox="0 0 480 480" style="enable-background:new 0 0 480 480;" xml:space="preserve">
<g>
	<circle style="fill:#FFC931;" cx="240" cy="48" r="40"/>
	<path style="fill:#FFC931;" d="M240,192l24,96h40l-24-112v-56h16c7.096,0,13.808-1.584,19.872-4.344
		c-0.888-0.592-1.752-1.2-2.688-1.728c0.936,0.528,1.8,1.144,2.688,1.728C332.456,108.096,344,91.416,344,72V8h-32v64
		c0,8.84-7.16,16-16,16h-56h-56c-8.84,0-16-7.16-16-16V8h-32v64c0,26.512,21.488,48,48,48h16v56l-24,112h40L240,192z"/>
</g>
<path style="fill:#406AF2;" d="M320,384l-40-40l-40,40l-40-40l-40,40l-38.856-38.856L17.144,472h445.712l-104-126.856L320,384z
	 M200,440h16H200z M232,440h16H232z M264,440h16H264z"/>
<polygon style="fill:#4BDDDD;" points="200,344 240,384 280,344 320,384 358.856,345.144 312,288 304,288 264,288 216,288 176,288 
	168,288 121.144,345.144 160,384 "/>
<g>
	<circle style="fill:#FFC931;" cx="56" cy="56" r="48"/>
	<circle style="fill:#FFC931;" cx="424" cy="296" r="48"/>
</g>
<path style="fill:#C9F4F3;" d="M9.128,256H143.28c0.44-2.608,0.72-5.272,0.72-8c0-26.512-21.488-48-48-48
	c-16.368,0-30.808,8.208-39.472,20.72C51.688,217.784,46.072,216,40,216c-17.672,0-32,14.328-32,32
	C8,250.776,8.464,253.432,9.128,256z"/>
<path style="fill:#B139D8;" d="M296,248c24.448,4.528,44.048,5.672,62.904-12.504c12.352-11.912,25.568-39.832,42.032-45.432
	c-13.064,4.44-27.776-1.64-37.696-11.232c-9.928-9.584-16.216-22.208-23.088-34.176c-6.872-11.968-14.96-23.936-26.96-30.736
	L304,120h-24v56L296,248z"/>
<polygon style="fill:#42C2C2;" points="304,288 264,288 240,288 240,384 280,344 320,384 358.856,345.144 312,288 "/>
<polygon style="fill:#385ED6;" points="240,472 462.856,472 358.856,345.144 320,384 280,344 240,384 "/>
<g>
	<path style="fill:#E6B52C;" d="M280,48c0-22.088-17.912-40-40-40v80C262.088,88,280,70.088,280,48z"/>
	<path style="fill:#E6B52C;" d="M264,288h40l-24-112v-56h16c7.096,0,13.808-1.584,19.872-4.344C332.456,108.096,344,91.416,344,72V8
		h-32v64c0,8.84-7.16,16-16,16h-56v104L264,288z"/>
</g>
<g>
	<path style="fill:#2A0E54;" d="M318.184,282.928C316.664,281.08,314.4,280,312,280h-1.528l-4.784-22.328
		c5.064,0.696,10.104,1.168,15.096,1.168c15,0,29.624-4.048,43.672-17.592c4.92-4.736,9.6-11.248,14.56-18.152
		c7.64-10.616,16.296-22.656,24.472-25.456c0.008-0.008,0.016-0.008,0.032-0.016c4.184-1.424,6.416-5.96,5-10.152
		c-1.424-4.176-5.976-6.448-10.152-4.992c0,0-0.008,0-0.016,0c-10.8,3.704-22.672-2.776-29.544-9.416
		c-7.568-7.304-12.904-16.792-18.552-26.832l-3.16-5.568c-4.664-8.112-10.248-16.776-17.472-24C343.176,106.448,352,90.256,352,72V8
		c0-4.424-3.584-8-8-8h-32c-4.416,0-8,3.576-8,8v64c0,4.416-3.592,8-8,8h-20.32C283.312,71.496,288,60.304,288,48
		c0-26.472-21.528-48-48-48s-48,21.528-48,48c0,12.304,4.688,23.496,12.32,32H184c-4.408,0-8-3.584-8-8V8c0-4.424-3.584-8-8-8h-32
		c-4.416,0-8,3.576-8,8v64c0,30.872,25.12,56,56,56h8v47.16L169.528,280H168c-2.4,0-4.664,1.08-6.184,2.928L13.36,464H0v16h17.144
		h445.712H480v-16h-13.36L318.184,282.928z M333.216,148.648l3.088,5.448c5.96,10.6,12.128,21.56,21.376,30.496
		c5.432,5.24,12.704,10.112,20.872,12.808c-4.384,5.04-8.488,10.744-12.528,16.36c-4.528,6.296-8.8,12.24-12.672,15.976
		c-14.28,13.76-28.896,14.872-51.264,11.168L288,175.16V128h8c6.568,0,12.848-1.192,18.712-3.28
		C322.32,130.912,328.104,139.76,333.216,148.648z M208,48c0-17.648,14.352-32,32-32s32,14.352,32,32s-14.352,32-32,32
		S208,65.648,208,48z M207.824,177.68c0.12-0.552,0.176-1.12,0.176-1.68v-56c0-4.424-3.584-8-8-8h-16c-22.056,0-40-17.944-40-40V16
		h16v56c0,13.232,10.768,24,24,24h112c13.232,0,24-10.768,24-24V16h16v56c0,22.056-17.944,40-40,40h-16c-4.416,0-8,3.576-8,8v56
		c0,0.56,0.056,1.128,0.176,1.68L294.104,280h-23.856l-22.488-89.936c-0.888-3.568-4.088-6.064-7.76-6.064s-6.872,2.496-7.76,6.064
		L209.752,280h-23.856L207.824,177.68z M253.752,280h-27.504L240,224.984L253.752,280z M171.784,296H176h40h48h40h4.216
		l39.856,48.616L320,372.688l-34.344-34.344c-3.128-3.128-8.184-3.128-11.312,0L240,372.688l-34.344-34.344
		c-3.128-3.128-8.184-3.128-11.312,0L160,372.688l-28.072-28.072L171.784,296z M34.048,464l87.688-106.952l32.608,32.608
		c3.128,3.128,8.184,3.128,11.312,0L200,355.312l34.344,34.344c3.128,3.128,8.184,3.128,11.312,0L280,355.312l34.344,34.344
		c1.56,1.56,3.608,2.344,5.656,2.344s4.096-0.784,5.656-2.344l32.608-32.608L445.952,464H34.048z"/>
	<rect x="232" y="432" style="fill:#2A0E54;" width="16" height="16"/>
	<rect x="264" y="432" style="fill:#2A0E54;" width="16" height="16"/>
	<rect x="200" y="432" style="fill:#2A0E54;" width="16" height="16"/>
	<path style="fill:#2A0E54;" d="M48,104c0,4.424,3.584,8,8,8s8-3.576,8-8c0-22.056,17.944-40,40-40c4.416,0,8-3.576,8-8
		s-3.584-8-8-8C81.944,48,64,30.056,64,8c0-4.424-3.584-8-8-8s-8,3.576-8,8c0,22.056-17.944,40-40,40c-4.416,0-8,3.576-8,8
		s3.584,8,8,8C30.056,64,48,81.944,48,104z M56,36.824C60.728,44.664,67.336,51.272,75.176,56
		C67.336,60.728,60.728,67.336,56,75.176C51.272,67.336,44.664,60.728,36.824,56C44.664,51.272,51.272,44.664,56,36.824z"/>
	<path style="fill:#2A0E54;" d="M472,288c-22.056,0-40-17.944-40-40c0-4.424-3.584-8-8-8s-8,3.576-8,8c0,22.056-17.944,40-40,40
		c-4.416,0-8,3.576-8,8s3.584,8,8,8c22.056,0,40,17.944,40,40c0,4.424,3.584,8,8,8s8-3.576,8-8c0-22.056,17.944-40,40-40
		c4.416,0,8-3.576,8-8S476.416,288,472,288z M424,315.176c-4.728-7.84-11.336-14.456-19.176-19.176
		c7.848-4.728,14.448-11.336,19.176-19.176c4.728,7.84,11.336,14.456,19.176,19.176C435.336,300.728,428.728,307.336,424,315.176z"
		/>
	<path style="fill:#2A0E54;" d="M9.136,264H143.28c3.904,0,7.24-2.824,7.888-6.68C151.728,254,152,250.944,152,248
		c0-30.872-25.12-56-56-56c-16.032,0-31.184,6.888-41.752,18.712C49.672,208.928,44.84,208,40,208c-22.056,0-40,17.944-40,40
		c0,3.144,0.456,6.416,1.392,10.016C2.304,261.536,5.488,264,9.136,264z M40,224c4.312,0,8.48,1.2,12.376,3.56
		c3.624,2.208,8.32,1.192,10.728-2.28C70.592,214.464,82.888,208,96,208c22.056,0,40,17.944,40,40H16C16,234.768,26.768,224,40,224z
		"/>
</g>
<g>
</g>
<g>
</g>
<g>
</g>
<g>
</g>
<g>
</g>
<g>
</g>
<g>
</g>
<g>
</g>
<g>
</g>
<g>
</g>
<g>
</g>
<g>
</g>
<g>
</g>
<g>
</g>
<g>
</g>
</svg>
